<svg xmlns="http://www.w3.org/2000/svg" width="141.927" height="189.237" viewBox="0 0 141.927 189.237">
  <path id="Icon_awesome-file-image" data-name="Icon awesome-file-image" d="M141.927,45.07v2.239H94.618V0h2.239a8.87,8.87,0,0,1,6.272,2.6l36.2,36.2A8.871,8.871,0,0,1,141.927,45.07ZM91.662,59.136a8.9,8.9,0,0,1-8.87-8.87V0H8.87A8.87,8.87,0,0,0,0,8.87v171.5a8.87,8.87,0,0,0,8.87,8.87H133.057a8.87,8.87,0,0,0,8.87-8.87V59.136ZM41.6,65.05A17.741,17.741,0,1,1,23.856,82.791,17.741,17.741,0,0,1,41.6,65.05Zm76.877,88.7H23.856l.179-17.92,14.6-14.6a4.226,4.226,0,0,1,6.093.179l14.6,14.6L97.6,97.754a4.436,4.436,0,0,1,6.273,0l14.6,14.6Z" fill="#e9901c"/>
</svg>
